HIERARCHY
ROOT root
{
	OFFSET 0.000000 0.000000 0.000000
	CHANNELS 6 Xposition Yposition Zposition Zrotation Yrotation Xrotation
	JOINT lhip
	{
		OFFSET 0.058581 -0.082280 -0.017664
		CHANNELS 3 Zrotation Yrotation Xrotation
		JOINT lknee
		{
			OFFSET 0.043451 -0.386469 0.008037
			CHANNELS 3 Zrotation Yrotation Xrotation
			JOINT lankle
			{
				OFFSET -0.014790 -0.426874 -0.037428
				CHANNELS 3 Zrotation Yrotation Xrotation
				JOINT ltoe
				{
					OFFSET 0.041054 -0.060286 0.122042
					CHANNELS 3 Zrotation Yrotation Xrotation
					End Site
					{
						OFFSET 0.000000 0.000000 0.000000
					}
				}
			}
		}
	}
	JOINT rhip
	{
		OFFSET -0.060310 -0.090513 -0.013543
		CHANNELS 3 Zrotation Yrotation Xrotation
		JOINT rknee
		{
			OFFSET -0.043257 -0.383688 -0.004843
			CHANNELS 3 Zrotation Yrotation Xrotation
			JOINT rankle
			{
				OFFSET 0.019056 -0.420046 -0.034562
				CHANNELS 3 Zrotation Yrotation Xrotation
				JOINT rtoe
				{
					OFFSET -0.034840 -0.062106 0.130323
					CHANNELS 3 Zrotation Yrotation Xrotation
					End Site
					{
						OFFSET 0.000000 0.000000 0.000000
					}
				}
			}
		}
	}
	JOINT lowerback
	{
		OFFSET 0.004439 0.124404 -0.038385
		CHANNELS 3 Zrotation Yrotation Xrotation
		JOINT upperback
		{
			OFFSET 0.004488 0.137956 0.026820
			CHANNELS 3 Zrotation Yrotation Xrotation
			JOINT chest
			{
				OFFSET -0.002265 0.056032 0.002855
				CHANNELS 3 Zrotation Yrotation Xrotation
				JOINT lowerneck
				{
					OFFSET -0.013390 0.211636 -0.033468
					CHANNELS 3 Zrotation Yrotation Xrotation
					JOINT upperneck
					{
						OFFSET 0.010113 0.088937 0.050410
						CHANNELS 3 Zrotation Yrotation Xrotation
						End Site
						{
							OFFSET 0.000000 0.000000 0.000000
						}
					}
				}
				JOINT lclavicle
				{
					OFFSET 0.071702 0.114000 -0.018898
					CHANNELS 3 Zrotation Yrotation Xrotation
					JOINT lshoulder
					{
						OFFSET 0.122921 0.045205 -0.019046
						CHANNELS 3 Zrotation Yrotation Xrotation
						JOINT lelbow
						{
							OFFSET 0.255332 -0.015649 -0.022946
							CHANNELS 3 Zrotation Yrotation Xrotation
							JOINT lwrist
							{
								OFFSET 0.265709 0.012698 -0.007375
								CHANNELS 3 Zrotation Yrotation Xrotation
								End Site
								{
									OFFSET 0.000000 0.000000 0.000000
								}
							}
						}
					}
				}
				JOINT rclavicle
				{
					OFFSET -0.082954 0.112472 -0.023707
					CHANNELS 3 Zrotation Yrotation Xrotation
					JOINT rshoulder
					{
						OFFSET -0.113228 0.046853 -0.008472
						CHANNELS 3 Zrotation Yrotation Xrotation
						JOINT relbow
						{
							OFFSET -0.260127 -0.014369 -0.031269
							CHANNELS 3 Zrotation Yrotation Xrotation
							JOINT rwrist
							{
								OFFSET -0.269108 0.006794 -0.006027
								CHANNELS 3 Zrotation Yrotation Xrotation
								End Site
								{
									OFFSET 0.000000 0.000000 0.000000
								}
							}
						}
					}
				}
			}
		}
	}
}
MOTION
Frames: 8
Frame Time: 0.033333
-1.937779 0.249524 1.001210 93.825564 0.367814 94.607995 -2.390216 -2.958113 -4.067887 -2.367864 3.621599 -5.716633 10.500436 23.150789 -16.321851 0.000000 -0.000000 0.000000 1.641416 5.867372 -21.105998 -3.089322 -8.253436 47.352405 1.802966 -17.008170 -4.375502 0.000000 -0.000000 0.000000 -4.693575 0.366426 6.928250 -1.824107 3.243079 -4.097272 -0.037229 -0.744028 0.192467 5.368601 -11.141255 14.304620 10.843079 0.383731 3.940623 -20.020919 7.995884 1.276619 -56.844128 -12.631711 4.457468 24.640713 -33.771718 -12.829590 -1.971852 3.128966 -10.403568 12.751361 -5.362160 -2.763538 64.515336 1.887413 13.561719 -3.784203 16.022559 0.803894 18.397866 1.520571 -17.503489 
-1.914188 0.251561 1.002557 93.741637 1.398867 93.405115 -1.695739 -2.321819 -1.032040 -2.006268 2.755078 -5.896228 9.434647 23.854959 -17.807889 0.000000 -0.000000 0.000000 2.035574 5.969459 -22.703546 -3.594764 -9.173386 41.363558 1.467643 -18.181470 -7.124075 0.000000 -0.000000 0.000000 -3.362186 0.014374 7.668934 -1.913754 3.457733 -3.788215 0.550258 -0.644466 1.279163 4.743844 -10.763526 13.581254 11.201247 0.547509 2.061288 -19.620598 6.804845 1.060479 -57.689590 -13.743099 4.411139 27.343259 -36.079427 -15.660168 2.070753 3.079965 -11.957559 12.572535 -4.404731 -2.955431 65.065873 1.837405 13.224166 -4.468170 16.244789 1.712704 13.947236 0.280356 -12.828554 
-1.896043 0.253379 1.002021 93.831114 1.929665 93.963371 -1.574953 -2.342856 -1.054848 -1.249362 2.868787 -4.499157 8.897786 23.917140 -19.582748 0.000000 -0.000000 0.000000 1.422261 7.041260 -26.148359 -3.138755 -9.650549 34.479436 2.088246 -17.702391 -9.105174 0.000000 -0.000000 0.000000 -2.679922 -0.665359 8.772105 -1.968889 3.777227 -5.316074 1.084188 -0.748927 2.174263 4.460911 -10.830828 11.834339 11.082559 1.263791 0.617355 -19.210777 7.069498 0.288548 -58.807831 -15.404011 5.064128 29.174446 -37.739850 -17.987142 5.490751 3.347407 -12.732516 12.183980 -4.479641 -3.335288 65.766330 2.320692 14.260191 -4.734570 15.602805 2.614118 11.634908 -0.620859 -9.985942 
-1.866085 0.254152 1.000249 94.361638 2.260601 93.958323 -1.123482 -1.402652 0.675007 -1.111327 2.557351 -3.806520 7.496195 23.070024 -21.984403 0.000000 -0.000000 0.000000 1.686252 5.849797 -27.033513 -3.213958 -7.702027 21.785293 3.339683 -14.622115 -9.948519 0.000000 -0.000000 0.000000 -2.329100 -0.679365 9.117421 -1.879436 3.500152 -4.831062 1.667326 -1.191403 1.401604 4.087019 -10.452735 11.431392 11.548392 1.078592 -0.639104 -19.058769 6.592560 0.384705 -58.511642 -16.668544 4.817664 30.826338 -40.034914 -19.821234 0.189528 0.274861 -16.297701 12.526656 -4.414838 -2.591709 66.002234 2.597064 13.688882 -4.914460 14.125734 3.151905 14.465387 -2.425955 -9.325874 
-1.848696 0.253812 0.997034 94.262085 2.101430 93.444045 -1.245431 -0.244731 2.003645 -0.858035 2.103988 -3.029672 6.502589 22.666489 -23.684287 0.000000 -0.000000 0.000000 1.992959 5.402511 -26.565285 -4.221917 -6.112947 13.589605 3.979628 -13.872276 -10.091559 0.000000 -0.000000 0.000000 -2.762324 -0.396795 8.219254 -1.606562 3.424194 -2.196674 2.116822 -1.134640 1.309754 4.048178 -10.530343 10.308123 11.985116 0.919737 -1.733702 -18.863265 5.126229 0.596932 -58.246763 -18.041915 5.054394 32.307640 -40.385414 -21.397677 2.132979 1.513929 -15.785590 12.853394 -3.437220 -2.631711 66.124653 2.866869 13.454004 -5.329590 13.391274 1.400598 15.310169 -2.985688 -9.861165 
-1.822162 0.253046 0.991660 94.758084 1.583609 93.186357 -1.437111 0.988595 3.537151 -0.684217 1.121324 -2.044543 5.502163 22.139244 -25.585754 0.000000 -0.000000 0.000000 2.183630 4.132741 -25.885814 -6.081245 -4.264580 3.632380 4.741938 -13.672295 -9.365400 0.000000 -0.000000 0.000000 -2.921529 -0.490615 9.657729 -2.150219 3.162292 -3.646361 2.506565 -1.560673 1.516462 3.208827 -11.079317 10.045567 12.894359 1.360957 -3.162180 -18.470329 5.174512 0.662250 -57.226313 -18.513446 4.891647 31.413930 -42.324340 -19.070276 1.190284 1.338210 -16.718814 12.972879 -3.599420 -2.616580 66.698945 2.280977 12.781718 -5.165563 12.015935 0.942132 16.904005 -3.838771 -10.000054 
-1.791002 0.250827 0.986341 96.351504 1.731787 92.126600 -0.109130 2.476095 6.427492 -0.904637 -0.796920 -1.543749 3.770747 20.938659 -27.211339 0.000000 -0.000000 0.000000 3.057114 2.261169 -23.457622 -7.206623 -3.682088 -4.708485 5.280141 -14.147842 -8.869774 0.000000 -0.000000 0.000000 -2.528883 -0.713724 10.419755 -2.111289 2.275382 -2.647825 2.838050 -2.063718 0.605680 2.093557 -11.679146 10.439727 13.646308 1.772420 -4.668676 -18.456416 4.482179 1.805881 -55.427319 -18.692475 3.950356 30.532116 -44.649577 -16.577571 -0.099288 1.177256 -17.877699 13.365276 -3.553604 -2.614214 66.548633 1.148479 11.245795 -4.827656 11.435992 1.103856 18.663202 -4.200829 -9.580484 
-1.766382 0.248839 0.979794 95.536388 0.645277 92.500964 -1.028945 3.326360 7.338198 -0.742378 -1.759710 -0.641953 3.611322 21.788627 -28.213662 0.000000 -0.000000 0.000000 1.767710 3.577364 -25.810537 -7.388663 -3.364198 -4.321095 5.790861 -14.452426 -9.269009 0.000000 -0.000000 0.000000 -3.056672 -1.200976 11.413130 -2.705740 3.166760 -4.803649 2.831984 -2.375522 1.522511 1.932170 -12.626508 9.034901 13.066838 1.720013 -5.805250 -18.028990 4.611876 2.099464 -55.056592 -19.045130 4.371498 29.580360 -44.077867 -12.507659 2.570698 4.833555 -12.676616 12.916628 -3.667648 -3.004947 67.492609 1.045549 11.884601 -4.554882 10.235491 1.538280 18.718978 -5.085153 -10.458151 
